<?xml version="1.0" encoding="utf-8"?>
<svg xmlns="http://www.w3.org/2000/svg" viewBox="-10.516 154.876 543.977 206.501">
  <path d="M 35.593 240.447 C 38.561 241.573 40.887 243.261 42.577 245.514 C 44.265 247.765 45.11 250.348 45.11 253.265 C 45.11 256.591 43.984 259.482 41.733 261.937 C 39.482 264.395 36.437 266.285 32.599 267.617 C 28.761 268.897 24.541 269.536 19.935 269.536 C 16.304 269.536 12.593 269.103 8.806 268.233 C 5.071 267.36 1.49 266.054 -1.939 264.318 L 2.589 253.724 C 4.994 254.953 7.555 255.901 10.263 256.565 C 13.029 257.18 15.691 257.486 18.247 257.486 C 21.624 257.486 24.387 256.949 26.535 255.872 C 28.684 254.749 29.759 253.188 29.759 251.192 C 29.759 249.607 29.093 248.429 27.763 247.662 C 26.435 246.895 24.644 246.512 22.391 246.512 L 8.652 246.512 L 8.652 235.382 L 21.162 235.382 C 23.211 235.382 24.798 234.971 25.921 234.154 C 27.049 233.336 27.61 232.235 27.61 230.854 C 27.61 229.115 26.741 227.783 25 226.862 C 23.261 225.89 21.01 225.405 18.247 225.405 C 15.996 225.405 13.618 225.737 11.108 226.401 C 8.603 227.016 6.223 227.911 3.97 229.089 L -0.482 217.577 C 5.251 214.812 11.545 213.431 18.401 213.431 C 22.8 213.431 26.869 214.071 30.603 215.35 C 34.389 216.579 37.385 218.37 39.583 220.722 C 41.836 223.075 42.96 225.864 42.96 229.089 C 42.96 231.595 42.296 233.848 40.964 235.842 C 39.686 237.787 37.895 239.322 35.593 240.447 Z M 99.146 264.318 C 96.383 265.901 93.033 267.156 89.093 268.079 C 85.154 269 81.059 269.459 76.812 269.459 C 71.081 269.459 66.195 268.769 62.152 267.386 C 58.162 266.004 55.144 264.087 53.095 261.629 C 51.101 259.174 50.103 256.334 50.103 253.111 C 50.103 250.297 50.871 247.816 52.405 245.668 C 53.94 243.516 56.065 241.856 58.776 240.678 C 56.68 239.603 55.067 238.117 53.94 236.227 C 52.865 234.281 52.328 232.158 52.328 229.856 C 52.328 226.888 53.249 224.176 55.091 221.718 C 56.986 219.263 59.848 217.295 63.686 215.81 C 67.527 214.326 72.259 213.585 77.887 213.585 C 81.417 213.585 84.897 213.917 88.324 214.583 C 91.755 215.247 94.772 216.144 97.381 217.269 L 93.237 228.627 C 88.478 226.528 83.567 225.482 78.5 225.482 C 74.869 225.482 72.156 225.967 70.365 226.939 C 68.575 227.86 67.678 229.166 67.678 230.854 C 67.678 233.925 69.903 235.459 74.357 235.459 L 89.553 235.459 L 89.553 247.048 L 73.359 247.048 C 70.747 247.048 68.78 247.482 67.45 248.352 C 66.12 249.17 65.452 250.399 65.452 252.036 C 65.452 253.775 66.425 255.133 68.369 256.103 C 70.314 257.077 73.334 257.563 77.425 257.563 C 80.342 257.563 83.336 257.18 86.405 256.411 C 89.529 255.593 92.239 254.492 94.541 253.111 L 99.146 264.318 Z M 126.875 214.121 C 134.654 214.121 140.717 215.99 145.065 219.724 C 149.413 223.409 151.589 228.601 151.589 235.305 C 151.589 241.753 149.62 246.791 145.68 250.425 C 141.792 254.006 136.288 255.797 129.178 255.797 C 125.444 255.797 121.529 255.079 117.435 253.648 L 117.435 268.384 L 102.468 268.384 L 102.468 237.071 C 102.468 229.652 104.541 223.973 108.684 220.032 C 112.83 216.091 118.893 214.121 126.875 214.121 Z M 126.644 244.745 C 129.765 244.745 132.144 243.978 133.784 242.443 C 135.472 240.858 136.316 238.579 136.316 235.613 C 136.316 232.745 135.498 230.496 133.861 228.858 C 132.274 227.218 130.049 226.401 127.182 226.401 C 124.112 226.401 121.707 227.322 119.968 229.166 C 118.28 231.006 117.435 233.591 117.435 236.917 L 117.435 242.289 C 120.146 243.927 123.219 244.745 126.644 244.745 Z M 209.826 214.658 L 209.826 268.384 L 194.63 268.384 L 194.63 247.431 L 173.907 247.431 L 173.907 268.384 L 158.709 268.384 L 158.709 214.658 L 173.907 214.658 L 173.907 234.844 L 194.63 234.844 L 194.63 214.658 L 209.826 214.658 Z M 247.772 230.546 C 254.628 230.546 259.976 232.208 263.812 235.536 C 267.65 238.86 269.569 243.567 269.569 249.656 C 269.569 256.052 267.393 260.99 263.045 264.469 C 258.695 267.899 252.478 269.613 244.395 269.613 C 236.464 269.613 230.478 267.899 226.435 264.469 C 222.444 260.99 220.45 255.848 220.45 249.042 L 220.45 214.658 L 235.415 214.658 L 235.415 233.002 C 239.66 231.364 243.782 230.546 247.772 230.546 Z M 290.369 214.658 L 290.369 268.384 L 275.324 268.384 L 275.324 214.658 L 290.369 214.658 Z M 245.162 258.101 C 248.079 258.101 250.328 257.382 251.915 255.949 C 253.502 254.518 254.296 252.524 254.296 249.963 C 254.296 247.305 253.425 245.283 251.686 243.901 C 249.998 242.469 247.644 241.753 244.626 241.753 C 243.037 241.753 241.425 241.955 239.79 242.366 C 238.203 242.775 236.745 243.336 235.415 244.054 L 235.415 248.66 C 235.415 251.68 236.259 254.006 237.948 255.644 C 239.636 257.283 242.041 258.101 245.162 258.101 Z M 374.703 214.658 L 374.703 268.384 L 301.867 268.384 L 301.867 214.658 L 316.834 214.658 L 316.834 256.334 L 330.879 256.334 L 330.879 214.658 L 345.844 214.658 L 345.844 256.334 L 359.737 256.334 L 359.737 214.658 L 374.703 214.658 Z M 407.907 247.816 L 401 247.816 L 401 268.384 L 385.881 268.384 L 385.881 214.658 L 401 214.658 L 401 235.536 L 408.292 235.536 L 421.108 214.658 L 437.073 214.658 L 420.263 240.601 L 437.227 268.384 L 420.112 268.384 L 407.907 247.816 Z M 468.205 269.459 C 462.527 269.459 457.407 268.257 452.855 265.852 C 448.35 263.447 444.796 260.121 442.186 255.872 C 439.628 251.627 438.348 246.844 438.348 241.522 C 438.348 236.2 439.628 231.417 442.186 227.168 C 444.796 222.923 448.35 219.597 452.855 217.192 C 457.407 214.785 462.527 213.585 468.205 213.585 C 473.885 213.585 478.974 214.785 483.478 217.192 C 488.031 219.597 491.587 222.923 494.146 227.168 C 496.757 231.417 498.061 236.2 498.061 241.522 C 498.061 246.844 496.757 251.627 494.146 255.872 C 491.587 260.121 488.031 263.447 483.478 265.852 C 478.974 268.257 473.885 269.459 468.205 269.459 Z M 468.205 256.872 C 470.915 256.872 473.371 256.233 475.573 254.953 C 477.772 253.674 479.512 251.884 480.792 249.581 C 482.069 247.229 482.711 244.54 482.711 241.522 C 482.711 238.502 482.069 235.842 480.792 233.54 C 479.512 231.186 477.772 229.368 475.573 228.091 C 473.371 226.812 470.915 226.172 468.205 226.172 C 465.492 226.172 463.037 226.812 460.836 228.091 C 458.634 229.368 456.897 231.186 455.618 233.54 C 454.336 235.842 453.699 238.502 453.699 241.522 C 453.699 244.54 454.336 247.229 455.618 249.581 C 456.897 251.884 458.634 253.674 460.836 254.953 C 463.037 256.233 465.492 256.872 468.205 256.872 Z" fill="#45403D"/>
  <g id="Layer_3" data-name="Layer 3" transform="matrix(1.605841, 0, 0, 1.508851, 306.907776, 255.732056)" style="">
    <path d="m46 26v18.5a10.433 10.433 0 0 1 -4.33 8.47l-11.7 8.37a8.776 8.776 0 0 1 -5.14 1.66 9.084 9.084 0 0 1 -1.46-.12 8.842 8.842 0 0 1 -5.79-3.63l-.03-.04a9.071 9.071 0 0 1 2.08-12.63l7.93-5.68a1.048 1.048 0 0 0 .44-.85v-14.05a1 1 0 0 1 1-1h16a1 1 0 0 1 1 1z" fill="#dc1f27"/>
    <path d="m46 26v18.5a10.433 10.433 0 0 1 -4.33 8.47l-4.67 3.34v-31.31h8a1 1 0 0 1 1 1z" fill="#981b1e"/>
    <rect fill="#e6e7e8" height="10" rx="3" width="24" x="25" y="17"/>
    <path d="m49 20v4a3.009 3.009 0 0 1 -3 3h-9v-10h9a3.009 3.009 0 0 1 3 3z" fill="#d1d3d4"/>
    <circle cx="37" cy="5" fill="#7cb170" r="4"/>
    <path d="m37 1a4 4 0 0 1 0 8z" fill="#195329"/>
    <g fill="#231f20">
      <path d="m37 19a1 1 0 0 1 -1-1v-10a1 1 0 0 1 2 0v10a1 1 0 0 1 -1 1z"/>
      <path d="m24.848 62.994a8.941 8.941 0 0 1 -7.287-3.763 9.089 9.089 0 0 1 2.068-12.651l7.932-5.68a1.055 1.055 0 0 0 .439-.854v-14.046a1 1 0 0 1 1-1h16a1 1 0 0 1 1 1v18.5a10.425 10.425 0 0 1 -4.332 8.467l-11.694 8.373a8.772 8.772 0 0 1 -5.126 1.654zm-5.658-4.924a6.906 6.906 0 0 0 4.51 2.83 6.793 6.793 0 0 0 5.1-1.185l11.7-8.373a8.422 8.422 0 0 0 3.5-6.842v-17.5h-14v13.046a3.057 3.057 0 0 1 -1.275 2.481l-7.931 5.678a7.087 7.087 0 0 0 -1.6 9.865z"/>
      <path d="m46 27h-18a3 3 0 0 1 -3-3v-4a3 3 0 0 1 3-3h18a3 3 0 0 1 3 3v4a3 3 0 0 1 -3 3zm-18-8a1 1 0 0 0 -1 1v4a1 1 0 0 0 1 1h18a1 1 0 0 0 1-1v-4a1 1 0 0 0 -1-1z"/>
      <path d="m37 9a4 4 0 1 1 4-4 4 4 0 0 1 -4 4zm0-6a2 2 0 1 0 2 2 2 2 0 0 0 -2-2z"/>
    </g>
  </g>
  <g id="group-1" data-name="Layer 3" transform="matrix(1.259048, 0.248949, -0.209214, 0.97787, 449.824066, 161.803177)" style="transform-origin: 32.0002px 32px;">
    <path d="m13 52c1.53-10.352 5.13-23.547 14.38-28.869 10.19-5.867 23.7 13.416 29.62 23.869l-4 4-7-4.87v5.87z" fill="#dc1f27"/>
    <g fill="#a7ddf9">
      <path d="m26 15a1 1 0 0 1 -1-1v-3a1 1 0 0 1 2 0v3a1 1 0 0 1 -1 1z" style="fill: rgb(36, 95, 249);"/>
      <path d="m26 6a1 1 0 0 1 -1-1v-3a1 1 0 0 1 2 0v3a1 1 0 0 1 -1 1z" style="fill: rgb(36, 95, 249);"/>
      <path d="m21 11.958a1 1 0 0 1 -.5-1.864l2.5-1.459a1 1 0 0 1 1 1.728l-2.5 1.458a1 1 0 0 1 -.5.137z" style="fill: rgb(36, 95, 249);"/>
      <path d="m28.5 7.5a1 1 0 0 1 -.516-1.857l2.5-1.5a1 1 0 1 1 1.029 1.715l-2.5 1.5a1 1 0 0 1 -.513.142z" style="fill: rgb(36, 95, 249);"/>
      <path d="m23.5 7.5a1 1 0 0 1 -.514-.143l-2.5-1.5a1 1 0 0 1 1.029-1.715l2.5 1.5a1 1 0 0 1 -.515 1.858z" style="fill: rgb(36, 95, 249);"/>
      <path d="m31 11.958a1 1 0 0 1 -.5-.136l-2.5-1.459a1 1 0 0 1 1-1.728l2.5 1.458a1 1 0 0 1 -.5 1.864z" style="fill: rgb(36, 95, 249);"/>
      <circle cx="26" cy="8" r="1" style="fill: rgb(36, 95, 249);"/>
    </g>
    <path d="m54 26a1 1 0 0 1 -1-1v-3a1 1 0 0 1 2 0v3a1 1 0 0 1 -1 1z" style="fill: rgb(46, 59, 237);"/>
    <path d="m54 17a1 1 0 0 1 -1-1v-3a1 1 0 0 1 2 0v3a1 1 0 0 1 -1 1z" style="fill: rgb(46, 59, 237);"/>
    <path d="m49 22.958a1 1 0 0 1 -.5-1.864l2.5-1.459a1 1 0 0 1 1 1.728l-2.5 1.458a1 1 0 0 1 -.5.137z" style="fill: rgb(46, 59, 237);"/>
    <path d="m56.5 18.5a1 1 0 0 1 -.516-1.857l2.5-1.5a1 1 0 1 1 1.029 1.715l-2.5 1.5a1 1 0 0 1 -.513.142z" style="fill: rgb(46, 59, 237);"/>
    <path d="m51.5 18.5a1 1 0 0 1 -.514-.143l-2.5-1.5a1 1 0 0 1 1.029-1.715l2.5 1.5a1 1 0 0 1 -.515 1.858z" style="fill: rgb(46, 59, 237);"/>
    <path d="m59 22.958a1 1 0 0 1 -.5-.136l-2.5-1.459a1 1 0 1 1 1-1.728l2.5 1.458a1 1 0 0 1 -.5 1.864z" style="fill: rgb(46, 59, 237);"/>
    <circle cx="54" cy="19" r="1" style="fill: rgb(46, 59, 237);"/>
    <path d="m7 36a1 1 0 0 1 -1-1v-3a1 1 0 0 1 2 0v3a1 1 0 0 1 -1 1z" style="fill: rgb(40, 87, 249);"/>
    <path d="m7 27a1 1 0 0 1 -1-1v-3a1 1 0 0 1 2 0v3a1 1 0 0 1 -1 1z" style="fill: rgb(40, 87, 249);"/>
    <path d="m2 32.958a1 1 0 0 1 -.5-1.864l2.5-1.459a1 1 0 1 1 1 1.728l-2.5 1.458a1 1 0 0 1 -.5.137z" style="fill: rgb(40, 87, 249);"/>
    <path d="m9.5 28.5a1 1 0 0 1 -.516-1.857l2.5-1.5a1 1 0 1 1 1.029 1.715l-2.5 1.5a1 1 0 0 1 -.513.142z" style="fill: rgb(40, 87, 249);"/>
    <path d="m4.5 28.5a1 1 0 0 1 -.514-.143l-2.5-1.5a1 1 0 1 1 1.029-1.715l2.5 1.5a1 1 0 0 1 -.515 1.858z" style="fill: rgb(40, 87, 249);"/>
    <path d="m12 32.958a1 1 0 0 1 -.5-.136l-2.5-1.459a1 1 0 1 1 1-1.728l2.5 1.458a1 1 0 0 1 -.5 1.864z" style="fill: rgb(40, 87, 249);"/>
    <circle cx="7" cy="29" r="1" style="fill: rgb(40, 87, 249);"/>
    <path d="m57 47-4 4-7-4.87v5.87h-14v-29.94c9.34.62 19.94 16 25 24.94z" fill="#981b1e"/>
    <rect fill="#e6e7e8" height="12" rx="3" width="41" x="9" y="51"/>
    <path d="m50 54v6a3.009 3.009 0 0 1 -3 3h-15v-12h15a3.009 3.009 0 0 1 3 3z" fill="#d1d3d4"/>
    <circle cx="57" cy="51" fill="#d1d3d4" r="6"/>
  </g>
</svg>