<!-- icon666.com - MILLIONS vector ICONS FREE --><svg id="Layer_1" viewBox="0 0 512 512" xmlns="http://www.w3.org/2000/svg" data-name="Layer 1"><path d="m163 219.222-53 58 43 59 68.015 54.11 63.985-54.11 81.283 84.176-63.875 68.835h-46.408l-114.846-64.68-82.154-86.331-48-114 9-32 60-57z" fill="#bacdd8" style="fill: rgb(244, 126, 16);"></path><path d="m408 24.222h-104a92 92 0 0 0 -92 92 92.012 92.012 0 0 0 81 91.343v71.461a4.57 4.57 0 0 0 7.835 3.2l72.492-74h34.673a92 92 0 0 0 92-92 92 92 0 0 0 -92-92.004z" fill="#ff5d7d" style="fill: rgb(244, 201, 82);"></path><path d="m290.93 327.058a13.858 13.858 0 0 0 -9.87-4.092 13.851 13.851 0 0 0 -9.863 4.088l-47.539 47.537a1.771 1.771 0 0 1 -2.249.208 361.93 361.93 0 0 1 -95.162-95.162 1.774 1.774 0 0 1 .208-2.249l47.538-47.539a13.953 13.953 0 0 0 0-19.733l-85.113-85.109a13.973 13.973 0 0 0 -19.733 0l-53.888 53.893a52.428 52.428 0 0 0 -14.549 45.594c10.49 63.094 44.983 126.561 97.13 178.706 51.96 51.958 115.16 86.473 177.98 97.191a52.422 52.422 0 0 0 45.8-14.516l54.2-54.2a13.969 13.969 0 0 0 0-19.734zm13.042 141.173a27.382 27.382 0 0 1 -23.956 7.563c-57.767-9.855-116.2-41.9-164.532-90.235-48.5-48.5-80.518-107.152-90.16-165.156a27.425 27.425 0 0 1 7.576-23.864l46.112-46.112 69.555 69.556-39.762 39.761a26.76 26.76 0 0 0 -3.215 33.9 386.922 386.922 0 0 0 101.81 101.806 26.762 26.762 0 0 0 33.9-3.215l39.761-39.761 69.339 69.335z" fill="#000000" style="fill: rgb(142, 57, 1);"></path><path d="m407.3 10.862h-106.539a104.7 104.7 0 0 0 -17.63 207.908v57.681a16.927 16.927 0 0 0 28.906 11.974l68.163-68.168h27.1a104.7 104.7 0 0 0 0-209.395zm0 184.443h-37.431l-61.787 61.787v-61.269l-11.789-.651a79.742 79.742 0 0 1 4.468-159.359h106.539a79.746 79.746 0 1 1 0 159.492z" fill="#000000" style="fill: rgb(142, 57, 1);"></path><circle cx="302.408" cy="115.996" r="12.476" fill="#000000" style="fill: rgb(142, 57, 1);"></circle><circle cx="353.808" cy="115.996" r="12.476" fill="#000000" style="fill: rgb(142, 57, 1);"></circle><circle cx="405.208" cy="115.996" r="12.476" fill="#000000" style="fill: rgb(142, 57, 1);"></circle></svg>